<svg id="Layer_1" data-name="Layer 1" xmlns="http://www.w3.org/2000/svg" width="199.81" height="130" viewBox="0 0 199.81 130">
<path d="M97.53.15C93.25,6.4,93.56,12.5,94.67,15a17.12,17.12,0,0,1,2.27-9.16c.42-.7.94-1.34,1.41-2l.21.11c-.08.23-.14.46-.23.68a20.1,20.1,0,0,0-1.92,9.13,10.92,10.92,0,0,0,3.18,7.36,2.43,2.43,0,0,0,4.15-.64,4.63,4.63,0,0,0-.2-4.8c-.11-.19-.23-.37-.47-.74a6.08,6.08,0,0,1,1,.24,9.47,9.47,0,0,1,4.84,5.1,5.21,5.21,0,0,1-1.38,5.42L107,26c1.22.86,2.41,1.69,3.59,2.54a23.81,23.81,0,0,1,8.83,11.9,12,12,0,0,1,.52,5.18l.17.13a11.85,11.85,0,0,0,1.25-1.2,14.49,14.49,0,0,0,2.88-6.37,13.28,13.28,0,0,0-3.52-12.28,70,70,0,0,0-10.86-9,9.29,9.29,0,0,1-1.51-1.22,9.71,9.71,0,0,1,1.1.16,29.66,29.66,0,0,1,16.48,11,13.69,13.69,0,0,1,2.88,9.84,16.83,16.83,0,0,1-2.7,7.37,37.53,37.53,0,0,1-5.37,6.37c-3.13,3.15-6.19,6.38-9.27,9.58-.55.58-1.09,1.17-1.75,1.88-.25-.75-.47-1.33-.63-1.93-1.08-4.27-3.59-6.89-9.06-7.43-3.69-.37-7.44-.21-11.16-.32-5.63-.17-11.17-.83-16.41-3.09a20.61,20.61,0,0,1-8.9-6.74A16.74,16.74,0,0,1,60.53,31.1a17.62,17.62,0,0,1,1.24-5.82,10.31,10.31,0,0,1,4.47-5c.38-.22.81-.37,1.37-.62-.1.51-.16.87-.25,1.22a33.17,33.17,0,0,0-1.28,9.29c.28,7,3.63,12.15,9.89,15.31a24.44,24.44,0,0,0,8.8,2.29c3.75.35,7.52.54,11.27.85a24.75,24.75,0,0,1,8.9,2.13,8.92,8.92,0,0,1,5.32,6.35c0,.26.16.5.27.87a3.16,3.16,0,0,0,.55-.45c2-2.57,4-5.17,4.48-8.47.85-5.59-.27-10.67-4.55-14.71a61.55,61.55,0,0,0-10.19-7.46,31.93,31.93,0,0,1-6.9-5.21,13.35,13.35,0,0,1-3.76-7.43,12.77,12.77,0,0,1,1.07-6.89,16.93,16.93,0,0,1,5-6.62A9.71,9.71,0,0,1,97.44,0,.66.66,0,0,1,97.53.15Z" fill="#fff"/><path d="M108.37,62.67a5.76,5.76,0,0,1-.75.1h-46c-.41,0-1,.14-1.07-.51a.94.94,0,0,1,.89-1.19c1.61-.29,3.24-.46,4.84-.77,3.8-.72,7.59-1.49,11.39-2.25,4.76-.95,9.51-2,14.29-2.82a17.91,17.91,0,0,1,8.14.07,13.12,13.12,0,0,1,8.07,6.85A4.27,4.27,0,0,1,108.37,62.67Z" fill="#fff"/><path d="M112.14,62.72c2.07-2.88,4.16-5.43,7.66-6.14a12.24,12.24,0,0,1,5.21.27c4.18,1,8.33,2.08,12.52,3,2.51.57,5.05,1,7.58,1.46a1.48,1.48,0,0,1,.79.42.87.87,0,0,1,.14.73c0,.15-.38.21-.6.28a1.33,1.33,0,0,1-.4,0H113.2C112.91,62.79,112.63,62.75,112.14,62.72Z" fill="#fff"/><path d="M91.35,31.63c-10.22.54-19.68-6.44-21-12.65,2.74,3.3,5.48,6.57,9.58,8.31-1.44-1.57-2.92-3-4.24-4.64a20.44,20.44,0,0,1-4.45-9.3,12.57,12.57,0,0,1,1.94-9.18c.14-.22.25-.46.38-.68l.28.21a7.48,7.48,0,0,1,0,1.16,18.58,18.58,0,0,0,2.34,11.92,35.53,35.53,0,0,0,9.41,10.61c1.62,1.28,3.34,2.43,5,3.64A7.63,7.63,0,0,1,91.35,31.63Z" fill="#fff"/><path d="M128.48,64.62h16.16c1.27,0,1.31.09,1.22,1.36,0,.61-.28.84-.92.84q-16.53,0-33,0c-.58,0-.79-.2-.79-.79,0-1.41,0-1.41,1.36-1.41Z" fill="#fff"/><path d="M74.69,66.84a17.45,17.45,0,0,1,.36-1.76c0-.18.32-.31.52-.42s.22,0,.33,0H106c.63,0,1.26,0,1.88,0s.86.25.8.84c0,.11,0,.23,0,.34,0,.91-.11,1-1,1h-33Z" fill="#fff"/><path d="M67.43,64.72h6.76a60.4,60.4,0,0,1-1.58,6.43A6.57,6.57,0,0,1,68,75.24a6.83,6.83,0,0,1-.75.13c.22-.94.45-1.8.61-2.67s.14-.94-.78-.94c-1.18,0-2.36,0-3.58-.12A9.16,9.16,0,0,0,67.43,64.72Zm4.23,2.43-1.13-.08c.11-.45.21-.83.3-1.19-.63-.27-.84.06-.93.53s-.3.81-.89.69-.76.13-.73.68l1.16.08c-.26.89-.51,1.73-.75,2.56.59.2.82,0,.93-.5s.31-.93.42-1.41.33-.8.91-.69S71.71,67.7,71.66,67.15Z" fill="#fff"/><path d="M63.07,66.78c-.76,0-1.53,0-2.29,0-.46,0-.69-.12-.69-.64,0-1.67-.17-1.49,1.44-1.5,1.37,0,2.74,0,4.11,0,.58,0,.74.27.72.79-.06,1.15-.25,1.34-1.4,1.34Z" fill="#fff"/><path d="M109.08,50a1.75,1.75,0,0,1,1.73,1.38.93.93,0,0,1-.26.69.69.69,0,0,1-.66-.08,9.5,9.5,0,0,1-1.21-1.4C108.4,50.21,108.6,50,109.08,50Z" fill="#fff"/><path d="M58.63,66.4a.94.94,0,0,1-.71.29,1,1,0,0,1-.7-.29,1,1,0,0,1,.7-1.7,1,1,0,0,1,.71.29,1,1,0,0,1,0,1.41Zm-1.31-1.31a.87.87,0,1,0,.61-.25A.86.86,0,0,0,57.32,65.09Zm.59.06a.77.77,0,0,1,.3,0,.28.28,0,0,1,.17.28.22.22,0,0,1-.11.21.34.34,0,0,1-.16,0,.25.25,0,0,1,.19.11.29.29,0,0,1,.06.17v.16s0,0,0,.06H58.2v-.13c0-.13,0-.21-.1-.25a.37.37,0,0,0-.21,0h-.15v.43h-.19V65.14h.36Zm.21.17a.47.47,0,0,0-.23,0h-.16v.4h.17l.18,0a.16.16,0,0,0,.11-.17A.2.2,0,0,0,58.12,65.32Z" fill="#fff"/><path d="M2,85.54H3V96.43H2Z" fill="#fff"/><path d="M16.2,95.72a7,7,0,0,1-2,.76,9.74,9.74,0,0,1-2.08.22,6,6,0,0,1-2.28-.42A5.33,5.33,0,0,1,8.08,95.1a5.38,5.38,0,0,1-1.15-1.81,6.48,6.48,0,0,1,0-4.59,5.54,5.54,0,0,1,1.15-1.81A5,5,0,0,1,9.86,85.7a6,6,0,0,1,2.28-.43,5.24,5.24,0,0,1,3.92,1.51l-.74.77a3.29,3.29,0,0,0-.61-.55,4.2,4.2,0,0,0-.78-.43,5.3,5.3,0,0,0-.88-.28,4.09,4.09,0,0,0-.91-.1,4.73,4.73,0,0,0-1.92.37,4.18,4.18,0,0,0-1.45,1,4.42,4.42,0,0,0-.92,1.52,5.74,5.74,0,0,0,0,3.78,4.58,4.58,0,0,0,.92,1.52,4.16,4.16,0,0,0,1.45,1,4.9,4.9,0,0,0,1.92.37,9.66,9.66,0,0,0,1.65-.14,4.12,4.12,0,0,0,1.4-.51V91.47H12.58v-.92h3.63v5.17Z" fill="#fff"/><path d="M20.42,85.54h1v10h5.08v.92H20.43V85.54Z" fill="#fff"/><path d="M29.34,85.54H36v.92H30.35v3.88h5.29v.92H30.35v4.25h5.89v.92H29.33V85.54Z" fill="#fff"/><path d="M40,94.41a2.57,2.57,0,0,0,1,1,3,3,0,0,0,1.45.34,2.91,2.91,0,0,0,1-.15,2.45,2.45,0,0,0,.78-.43,2,2,0,0,0,.52-.67,2,2,0,0,0,.19-.88,1.7,1.7,0,0,0-.24-.94A1.87,1.87,0,0,0,44,92.1a5.33,5.33,0,0,0-.9-.41l-1-.34c-.35-.11-.7-.24-1-.38a3.48,3.48,0,0,1-.9-.56,2.46,2.46,0,0,1-.64-.87,3.1,3.1,0,0,1-.24-1.29A2.71,2.71,0,0,1,40.34,86a3.38,3.38,0,0,1,1.12-.57,4.44,4.44,0,0,1,1.32-.19,4.08,4.08,0,0,1,1.65.32,3.07,3.07,0,0,1,1.31,1l-.88.63a2.64,2.64,0,0,0-.9-.81,2.58,2.58,0,0,0-1.22-.27,3.24,3.24,0,0,0-.94.13,2.36,2.36,0,0,0-.78.38,1.84,1.84,0,0,0-.53.64,2,2,0,0,0-.2.91,1.73,1.73,0,0,0,.42,1.25,3,3,0,0,0,1,.69,11.86,11.86,0,0,0,1.35.45,6.21,6.21,0,0,1,1.35.52,2.91,2.91,0,0,1,1,.9,2.66,2.66,0,0,1,.42,1.59A2.9,2.9,0,0,1,45.63,95a2.72,2.72,0,0,1-.75,1,3.15,3.15,0,0,1-1.08.59,4.23,4.23,0,0,1-1.28.2,5.1,5.1,0,0,1-2-.38A3.55,3.55,0,0,1,39,95.05Z" fill="#fff"/><path d="M49.48,85.54h1V96.43h-1Z" fill="#fff"/><path d="M58,85.54h1.05l4.58,10.89H62.53l-1.18-2.89H55.58l-1.23,2.89H53.29Zm.48,1.1-2.54,6h5Z" fill="#fff"/><path d="M71.57,85.54h3.37a7.33,7.33,0,0,1,2.4.35,5.53,5.53,0,0,1,1.64.88A4.39,4.39,0,0,1,80,88a5.79,5.79,0,0,1,.77,2.33c0,.32,0,.55,0,.68s0,.36,0,.68a6.47,6.47,0,0,1-.22,1.08A5.82,5.82,0,0,1,80,94a4.41,4.41,0,0,1-1,1.19,5.31,5.31,0,0,1-1.64.88,7.33,7.33,0,0,1-2.4.35H71.57Zm1,10h2.09a7.31,7.31,0,0,0,2-.27,4.55,4.55,0,0,0,1.63-.82A3.83,3.83,0,0,0,79.41,93a5.3,5.3,0,0,0,0-4,3.93,3.93,0,0,0-1.09-1.41,4.64,4.64,0,0,0-1.63-.82,7.25,7.25,0,0,0-2-.27H72.58Z" fill="#fff"/><path d="M84.33,85.54H91v.92H85.35v3.88h5.29v.92H85.35v4.25h5.89v.92H84.33Z" fill="#fff"/><path d="M94.69,85.54h1v10h5.08v.92H94.7V85.54Z" fill="#fff"/><path d="M108.84,85.54h1.31l6.63,9.54h0V85.54h1V96.43h-1.31l-6.63-9.54h0v9.54h-1V85.54Z" fill="#fff"/><path d="M125.38,85.54h1.05L131,96.43h-1.14l-1.18-2.89h-5.77l-1.23,2.89h-1.06Zm.47,1.1-2.54,6h5Z" fill="#fff"/><path d="M132.67,95.63,139,86.46h-6.28v-.92h7.58v.83l-6.42,9.14h6.58v.92h-7.85v-.8Z" fill="#fff"/><path d="M146.93,85.54h1l4.58,10.89h-1.14l-1.18-2.89h-5.77l-1.23,2.89h-1.06Zm.47,1.1-2.54,6h5Z" fill="#fff"/><path d="M155.36,85.54h2.86l.58,0a6.12,6.12,0,0,1,.8.09,4.33,4.33,0,0,1,.88.25,2.54,2.54,0,0,1,.8.49,2.43,2.43,0,0,1,.58.81,2.89,2.89,0,0,1,.23,1.2,2.74,2.74,0,0,1-.27,1.29,2.51,2.51,0,0,1-.68.82,2.77,2.77,0,0,1-.9.47,6,6,0,0,1-.94.21l3.17,5.23h-1.15l-3.06-5.17h-1.89v5.17h-1V85.54Zm1,4.8h2.15a3.62,3.62,0,0,0,1.3-.2,2.27,2.27,0,0,0,.78-.49A1.66,1.66,0,0,0,161,89a2,2,0,0,0,0-1.24,1.48,1.48,0,0,0-.38-.63,2.09,2.09,0,0,0-.78-.49,3.62,3.62,0,0,0-1.3-.2h-2.15Z" fill="#fff"/><path d="M165.71,85.54h6.66v.92h-5.65v3.88H172v.92h-5.29v4.25h5.89v.92H165.7V85.54Z" fill="#fff"/><path d="M176.06,85.54h1.31L184,95.07h0V85.53h1V96.42h-1.31l-6.63-9.54h0v9.54h-1V85.54Z" fill="#fff"/><path d="M188.55,91a6.1,6.1,0,0,1,.42-2.29,5.54,5.54,0,0,1,1.15-1.81,5,5,0,0,1,1.78-1.19,6.26,6.26,0,0,1,4.56,0,5.19,5.19,0,0,1,2.93,3,6.48,6.48,0,0,1,0,4.59,5.44,5.44,0,0,1-1.15,1.81,5,5,0,0,1-1.78,1.18,6.4,6.4,0,0,1-4.56,0,5.23,5.23,0,0,1-1.78-1.18A5.38,5.38,0,0,1,189,93.28,6.15,6.15,0,0,1,188.55,91Zm1,0a5.51,5.51,0,0,0,.32,1.89,4.42,4.42,0,0,0,.92,1.52,4.16,4.16,0,0,0,1.45,1,5.17,5.17,0,0,0,3.84,0,4.3,4.3,0,0,0,1.45-1,4.42,4.42,0,0,0,.92-1.52,5.74,5.74,0,0,0,0-3.78,4.58,4.58,0,0,0-.92-1.52,4.32,4.32,0,0,0-1.45-1,5.17,5.17,0,0,0-3.84,0,4.18,4.18,0,0,0-1.45,1,4.42,4.42,0,0,0-.92,1.52A5.51,5.51,0,0,0,189.57,91Z" fill="#fff"/><path d="M21.23,122.73a9.21,9.21,0,0,1-3.6,3,10.67,10.67,0,0,1-4.42.92,11.86,11.86,0,0,1-4.53-.84,10.12,10.12,0,0,1-3.52-2.35,11,11,0,0,1-2.29-3.6,12.28,12.28,0,0,1-.82-4.56,12.14,12.14,0,0,1,.82-4.54,10.72,10.72,0,0,1,2.29-3.58,10.53,10.53,0,0,1,3.52-2.36,11.68,11.68,0,0,1,4.53-.85,10.73,10.73,0,0,1,4.1.78,8.2,8.2,0,0,1,3.34,2.61L19,108.74a6,6,0,0,0-2.58-2.23,7.79,7.79,0,0,0-3.22-.7,9.47,9.47,0,0,0-3.8.73,8.48,8.48,0,0,0-2.88,2,9,9,0,0,0-1.83,3,11.31,11.31,0,0,0,0,7.5,9,9,0,0,0,1.83,3,8.48,8.48,0,0,0,2.88,2,9.43,9.43,0,0,0,3.8.73,8,8,0,0,0,1.71-.2,7.36,7.36,0,0,0,1.72-.61,8,8,0,0,0,1.6-1,6.74,6.74,0,0,0,1.34-1.51Z" fill="#fff"/><path d="M26,115.32a12.14,12.14,0,0,1,.82-4.54,10.72,10.72,0,0,1,2.29-3.58,10.53,10.53,0,0,1,3.52-2.36,12.5,12.5,0,0,1,9.06,0,10.43,10.43,0,0,1,3.52,2.36,10.88,10.88,0,0,1,2.29,3.58,13,13,0,0,1,0,9.1,10.81,10.81,0,0,1-2.29,3.6,10.22,10.22,0,0,1-3.52,2.35,12.63,12.63,0,0,1-9.06,0,10.12,10.12,0,0,1-3.52-2.35,11,11,0,0,1-2.29-3.6A12.28,12.28,0,0,1,26,115.32Zm2,0a10.7,10.7,0,0,0,.64,3.75,9,9,0,0,0,1.83,3,8.48,8.48,0,0,0,2.88,2,10.23,10.23,0,0,0,7.59,0,8.48,8.48,0,0,0,2.88-2,9,9,0,0,0,1.83-3,11.31,11.31,0,0,0,0-7.5,9.06,9.06,0,0,0-1.83-3,8.35,8.35,0,0,0-2.88-2,10.23,10.23,0,0,0-7.59,0,8.48,8.48,0,0,0-2.88,2,9,9,0,0,0-1.83,3A10.7,10.7,0,0,0,28,115.32Z" fill="#fff"/><path d="M55.21,104.53h5.67l1.16,0a12.1,12.1,0,0,1,1.59.18,9.12,9.12,0,0,1,1.74.49,4.71,4.71,0,0,1,1.58,1,5.33,5.33,0,0,1,1.16,1.62,6.42,6.42,0,0,1-.07,4.94,5,5,0,0,1-1.34,1.63,5.51,5.51,0,0,1-1.78.93,11.75,11.75,0,0,1-1.86.43l6.28,10.36H67.05L61,115.88H57.23v10.24h-2V104.53Zm2,9.51H61.5a6.92,6.92,0,0,0,2.58-.4,4.21,4.21,0,0,0,1.54-1,3.14,3.14,0,0,0,.75-1.25,3.82,3.82,0,0,0,0-2.44,3,3,0,0,0-.75-1.25,4.35,4.35,0,0,0-1.54-1,7.13,7.13,0,0,0-2.58-.4H57.23Z" fill="#fff"/><path d="M74.33,115.32a12.14,12.14,0,0,1,.82-4.54,10.72,10.72,0,0,1,2.29-3.58A10.53,10.53,0,0,1,81,104.84a12.5,12.5,0,0,1,9.06,0,10.43,10.43,0,0,1,3.52,2.36,10.88,10.88,0,0,1,2.29,3.58,13,13,0,0,1,0,9.1,10.81,10.81,0,0,1-2.29,3.6A10.22,10.22,0,0,1,90,125.83a12.63,12.63,0,0,1-9.06,0,10.12,10.12,0,0,1-3.52-2.35,11,11,0,0,1-2.29-3.6A12.28,12.28,0,0,1,74.33,115.32Zm2,0a10.7,10.7,0,0,0,.64,3.75,9,9,0,0,0,1.83,3,8.48,8.48,0,0,0,2.88,2,10.23,10.23,0,0,0,7.59,0,8.48,8.48,0,0,0,2.88-2,9,9,0,0,0,1.83-3,11.31,11.31,0,0,0,0-7.5,9.06,9.06,0,0,0-1.83-3,8.35,8.35,0,0,0-2.88-2,10.23,10.23,0,0,0-7.59,0,8.48,8.48,0,0,0-2.88,2,9,9,0,0,0-1.83,3A10.7,10.7,0,0,0,76.34,115.32Z" fill="#fff"/><path d="M103.59,104.53h2.59l13.14,18.9h.06v-18.9h2v21.58H118.8l-13.14-18.9h-.06v18.9h-2Z" fill="#fff"/><path d="M136.36,104.53h2.07l9.08,21.58h-2.26l-2.35-5.73H131.47L129,126.11h-2.1Zm.95,2.19-5,11.83h9.91Z" fill="#fff"/><path d="M152.79,104.53h6.68a14.37,14.37,0,0,1,4.76.69,10.76,10.76,0,0,1,3.25,1.75,8.82,8.82,0,0,1,2,2.36,11.74,11.74,0,0,1,1.1,2.48,11,11,0,0,1,.44,2.15c.06.64.09,1.09.09,1.36s0,.72-.09,1.36a11.74,11.74,0,0,1-.44,2.15,11.52,11.52,0,0,1-1.1,2.49,8.82,8.82,0,0,1-2,2.36,10.64,10.64,0,0,1-3.25,1.75,14.37,14.37,0,0,1-4.76.69h-6.68Zm2,19.75H159a14.63,14.63,0,0,0,4-.53,9.19,9.19,0,0,0,3.23-1.63,7.63,7.63,0,0,0,2.17-2.79,10.57,10.57,0,0,0,0-8,7.63,7.63,0,0,0-2.17-2.79,9,9,0,0,0-3.23-1.63,14.25,14.25,0,0,0-4-.53H154.8Z" fill="#fff"/><path d="M176.69,115.32a12.14,12.14,0,0,1,.82-4.54,10.72,10.72,0,0,1,2.29-3.58,10.53,10.53,0,0,1,3.52-2.36,12.5,12.5,0,0,1,9.06,0,10.43,10.43,0,0,1,3.52,2.36,11,11,0,0,1,2.29,3.58,13,13,0,0,1,0,9.1,10.81,10.81,0,0,1-2.29,3.6,10.22,10.22,0,0,1-3.52,2.35,12.63,12.63,0,0,1-9.06,0,10.22,10.22,0,0,1-3.52-2.35,10.81,10.81,0,0,1-2.29-3.6A12.28,12.28,0,0,1,176.69,115.32Zm2,0a10.7,10.7,0,0,0,.64,3.75,9,9,0,0,0,1.83,3,8.48,8.48,0,0,0,2.88,2,10.23,10.23,0,0,0,7.59,0,8.48,8.48,0,0,0,2.88-2,9,9,0,0,0,1.83-3,11.31,11.31,0,0,0,0-7.5,9.06,9.06,0,0,0-1.83-3,8.48,8.48,0,0,0-2.88-2,10.23,10.23,0,0,0-7.59,0,8.48,8.48,0,0,0-2.88,2,9,9,0,0,0-1.83,3A10.7,10.7,0,0,0,178.7,115.32Z" fill="#fff"/><line y1="99.89" x2="199.77" y2="99.89" fill="none" stroke="#93c01f" stroke-linecap="round" stroke-miterlimit="10" stroke-width="0.88"/></svg>