<?xml version="1.0" encoding="UTF-8"?>
<svg id="Layer_1" data-name="Layer 1" xmlns="http://www.w3.org/2000/svg" width="222.54" height="153.41" viewBox="0 0 222.54 153.41">
  <g>
    <path d="M142.93,53.04c2.7,1.38,4.29,3.04,4.4,4.9,.36,6.09-15.25,11.97-34.86,13.14-19.61,1.17-35.81-2.83-36.17-8.92-.11-1.86,1.27-3.69,3.79-5.39-4.73,2.31-7.45,4.99-7.29,7.71,.4,6.71,18.25,11.11,39.87,9.83,21.62-1.28,38.82-7.77,38.42-14.48-.16-2.72-3.18-5.05-8.15-6.79Z" fill="#00b09b"/>
    <path d="M139.69,14.56c-1.68-1.06-10.77-11.26-11.28-14.56-1.37,3.7,6.57,14.1,7.2,15.96,.63,1.86,1.29,9.52-3.54,12.25-5.95,3.36-12.4,10-14.97,15-2.56,4.99-8.6,11.75-16.31,12.38-5.03,.41-6.59-1.89-5.77-4.36,.53-1.6,1.71-3.25,6.82-4.34,4.26-.91,6.05-6.09,8.25-10.45,2.39-4.73,5.38-13.12,2.96-19.38-1.56-4.03-6.98-2.13-6.98-2.13,0,0,4.46,.5,4.68,7.51,.14,4.55-5.31,19.81-9.38,22.78,0,0-10.12,2.03-9.77,6.3,.35,4.28,3.39,5.46,9.74,4.94,5.24-.43,9.7-1.87,17.49-11.05,2.94-3.46,8.01-10.66,16.53-14.71,8.52-4.05,6.01-15.09,4.33-16.15Z" fill="#fff"/>
    <path d="M119.68,52.6c-.12,.17-.24,.33-.36,.5,6.98,.73,11.75,2.45,11.84,4.64,.13,3.24-10.02,6.28-22.66,6.78-12.65,.5-23-1.71-23.13-4.95-.04-.89,.71-1.77,2.07-2.58-1.81,.98-2.82,2.06-2.77,3.16,.15,3.65,11.8,6.14,26.03,5.58,14.23-.57,25.65-3.99,25.51-7.63-.11-2.79-6.95-4.9-16.51-5.49Z" fill="#00b09b"/>
    <path d="M106.17,58.63c.5,.11,.8,.26,.81,.42,.01,.44-2.1,.87-4.73,.95s-4.77-.21-4.78-.66c0-.07,.05-.14,.15-.21-1.35,.27-2.19,.62-2.17,.97,.02,.7,3.4,1.16,7.54,1.03s7.48-.8,7.46-1.5c-.02-.5-1.76-.88-4.27-1.01Z" fill="#00b09b"/>
  </g>
  <g>
    <g>
      <path d="M.28,147.27c.52-.72,.98-1.55,1.5-2.27,.52-.72,1.33-.94,1.96-.44,.35,.28,4.78,3.82,9.22,3.82,3.98,0,6.51-2.32,6.51-5.15,0-3.32-3-5.42-8.7-7.69-5.88-2.38-10.48-5.31-10.48-11.73,0-4.32,3.46-10.24,12.62-10.24,5.76,0,10.08,2.88,10.66,3.27,.46,.28,.92,1.05,.35,1.88-.46,.66-.98,1.44-1.44,2.1-.46,.72-1.21,1.05-2.02,.55-.4-.22-4.44-2.77-7.78-2.77-4.84,0-6.51,2.93-6.51,4.98,0,3.15,2.53,5.09,7.32,6.97,6.68,2.6,12.39,5.65,12.39,12.4,0,5.76-5.36,10.46-12.85,10.46-7.03,0-11.46-3.54-12.39-4.37-.52-.44-.92-.83-.35-1.77Z" fill="#fff"/>
      <path d="M30.66,120.03l-.65-1.25c-.19-.36,.05-.72,.28-.85l7.31-4.07c.28-.18,.98-.27,1.21,.13l1.07,1.97c.28,.45,.09,.89-.28,1.07l-7.82,3.22c-.6,.27-.93,.18-1.12-.22Zm-.31,3.35c0-.55,.52-1.05,1.09-1.05h3.8c.58,0,1.09,.5,1.09,1.05v28.42c0,.55-.52,1.05-1.09,1.05h-3.8c-.58,0-1.09-.5-1.09-1.05v-28.42Z" fill="#fff"/>
      <path d="M61.87,113.56c5.53,0,10.08,1.94,14,5.15,.46,.44,.52,1.11,.06,1.55-.86,.89-1.73,1.72-2.59,2.6-.46,.5-.92,.44-1.5-.06-2.71-2.27-6.28-3.76-9.79-3.76-8.18,0-14.46,6.64-14.46,14.39,0,7.69,6.28,14.34,14.46,14.34,4.78,0,8.07-1.66,8.64-1.88v-6.2h-5.65c-.63,0-1.09-.44-1.09-1v-3.21c0-.61,.46-1.05,1.09-1.05h10.49c.58,0,1.04,.5,1.04,1.05,0,4.43,.06,8.97,.06,13.4,0,.28-.23,.72-.46,.89,0,0-5.93,3.65-14.29,3.65-11.46,0-20.74-8.8-20.74-19.87,0-11.07,9.28-19.98,20.74-19.98Z" fill="#fff"/>
      <path d="M81.68,115.16c0-.55,.52-1.05,1.09-1.05h3.86c.63,0,1.09,.5,1.09,1.05v22.86c0,5.54,3.69,9.85,9.56,9.85,5.93,0,9.68-4.26,9.68-9.74v-22.97c0-.55,.46-1.05,1.09-1.05h3.86c.58,0,1.09,.5,1.09,1.05v23.25c0,8.41-6.63,15-15.73,15-9.05,0-15.61-6.59-15.61-15v-23.25Z" fill="#fff"/>
      <path d="M120.22,115.16c0-.55,.46-1.05,1.09-1.05h23.04c.63,0,1.09,.5,1.09,1.05v3.1c0,.55-.46,1.05-1.09,1.05h-18.2v11.29h15.38c.58,0,1.09,.5,1.09,1.05v3.1c0,.61-.52,1.05-1.09,1.05h-15.38v11.9h18.2c.63,0,1.09,.5,1.09,1.05v3.04c0,.55-.46,1.05-1.09,1.05h-23.04c-.63,0-1.09-.5-1.09-1.05v-36.64Z" fill="#fff"/>
      <path d="M155.08,114.39c.12-.44,.58-.83,1.04-.83h.92c.35,0,.86,.28,.98,.61l12.04,28.29h.23s11.98-28.29,11.98-28.29c.11-.33,.58-.61,.98-.61h.92c.46,0,.92,.39,1.04,.83l7.09,37.2c.17,.78-.23,1.27-1.04,1.27h-3.74c-.52,0-.98-.39-1.09-.78l-4.26-24.74h-.17s-10.37,25.46-10.37,25.46c-.12,.33-.46,.61-.98,.61h-1.04c-.46,0-.86-.28-.98-.61l-10.43-25.46h-.23s-4.15,24.74-4.15,24.74c-.06,.39-.58,.78-1.04,.78h-3.74c-.81,0-1.21-.5-1.09-1.27l7.14-37.2Z" fill="#fff"/>
      <path d="M197.3,115.16c0-.55,.46-1.05,1.09-1.05h23.04c.63,0,1.09,.5,1.09,1.05v3.1c0,.55-.46,1.05-1.09,1.05h-18.2v11.29h15.38c.58,0,1.09,.5,1.09,1.05v3.1c0,.61-.52,1.05-1.09,1.05h-15.38v11.9h18.2c.63,0,1.09,.5,1.09,1.05v3.04c0,.55-.46,1.05-1.09,1.05h-23.04c-.63,0-1.09-.5-1.09-1.05v-36.64Z" fill="#fff"/>
    </g>
    <g>
      <path d="M4.4,97.03c0-.16,.14-.3,.3-.3h1.03c.16,0,.3,.14,.3,.3v10.34c0,.16-.14,.3-.3,.3h-1.03c-.16,0-.3-.14-.3-.3v-10.34Z" fill="#bcbec0"/>
      <path d="M16.07,96.58c1.5,0,2.73,.55,3.8,1.45,.12,.12,.14,.31,.02,.44-.23,.25-.47,.48-.7,.73-.12,.14-.25,.12-.41-.02-.73-.64-1.7-1.06-2.66-1.06-2.22,0-3.92,1.88-3.92,4.06s1.7,4.05,3.92,4.05c1.3,0,2.19-.47,2.34-.53v-1.75h-1.53c-.17,0-.3-.12-.3-.28v-.91c0-.17,.12-.3,.3-.3h2.84c.16,0,.28,.14,.28,.3,0,1.25,.02,2.53,.02,3.78,0,.08-.06,.2-.12,.25,0,0-1.61,1.03-3.88,1.03-3.11,0-5.62-2.48-5.62-5.61s2.52-5.64,5.62-5.64Z" fill="#bcbec0"/>
      <path d="M24.71,97.03c0-.16,.12-.3,.3-.3h1.03c.16,0,.3,.14,.3,.3v9.19h4.23c.17,0,.3,.14,.3,.3v.86c0,.16-.12,.3-.3,.3h-5.56c-.17,0-.3-.14-.3-.3v-10.34Z" fill="#bcbec0"/>
      <path d="M34.69,97.03c0-.16,.12-.3,.3-.3h6.25c.17,0,.3,.14,.3,.3v.88c0,.16-.12,.3-.3,.3h-4.94v3.19h4.17c.16,0,.3,.14,.3,.3v.88c0,.17-.14,.3-.3,.3h-4.17v3.36h4.94c.17,0,.3,.14,.3,.3v.86c0,.16-.12,.3-.3,.3h-6.25c-.17,0-.3-.14-.3-.3v-10.34Z" fill="#bcbec0"/>
      <path d="M45.37,106.1c.14-.2,.27-.44,.41-.64s.36-.27,.53-.12c.09,.08,1.3,1.08,2.5,1.08,1.08,0,1.77-.66,1.77-1.45,0-.94-.81-1.53-2.36-2.17-1.59-.67-2.84-1.5-2.84-3.31,0-1.22,.94-2.89,3.42-2.89,1.56,0,2.73,.81,2.89,.92,.12,.08,.25,.3,.09,.53-.12,.19-.27,.41-.39,.59-.12,.2-.33,.3-.55,.16-.11-.06-1.2-.78-2.11-.78-1.31,0-1.77,.83-1.77,1.41,0,.89,.69,1.44,1.98,1.97,1.81,.73,3.36,1.59,3.36,3.5,0,1.62-1.45,2.95-3.48,2.95-1.91,0-3.11-1-3.36-1.23-.14-.12-.25-.23-.09-.5Z" fill="#bcbec0"/>
      <path d="M56.65,97.03c0-.16,.14-.3,.3-.3h1.03c.16,0,.3,.14,.3,.3v10.34c0,.16-.14,.3-.3,.3h-1.03c-.16,0-.3-.14-.3-.3v-10.34Z" fill="#bcbec0"/>
      <path d="M62.02,107.27l4.8-10.52c.05-.09,.19-.17,.27-.17h.16c.08,0,.22,.08,.27,.17l4.77,10.52c.09,.2-.03,.41-.27,.41h-.98c-.19,0-.3-.09-.36-.23l-.97-2.14h-5.11c-.31,.72-.64,1.42-.95,2.14-.05,.11-.17,.23-.36,.23h-.98c-.23,0-.36-.2-.27-.41Zm7.08-3.31l-1.92-4.28h-.08l-1.91,4.28h3.91Z" fill="#bcbec0"/>
      <path d="M81.64,97.03c0-.16,.12-.3,.28-.3h3.59c3.02,0,5.48,2.45,5.48,5.45s-2.47,5.48-5.48,5.48h-3.59c-.16,0-.28-.14-.28-.3v-10.34Zm3.66,9.16c2.3,0,3.97-1.69,3.97-4s-1.67-3.97-3.97-3.97h-2.06v7.97h2.06Z" fill="#bcbec0"/>
      <path d="M95.43,97.03c0-.16,.12-.3,.3-.3h6.25c.17,0,.3,.14,.3,.3v.88c0,.16-.12,.3-.3,.3h-4.94v3.19h4.17c.16,0,.3,.14,.3,.3v.88c0,.17-.14,.3-.3,.3h-4.17v3.36h4.94c.17,0,.3,.14,.3,.3v.86c0,.16-.12,.3-.3,.3h-6.25c-.17,0-.3-.14-.3-.3v-10.34Z" fill="#bcbec0"/>
      <path d="M106.81,97.03c0-.16,.12-.3,.3-.3h1.03c.16,0,.3,.14,.3,.3v9.19h4.23c.17,0,.3,.14,.3,.3v.86c0,.16-.12,.3-.3,.3h-5.56c-.17,0-.3-.14-.3-.3v-10.34Z" fill="#bcbec0"/>
      <path d="M122.42,96.86c0-.16,.14-.28,.3-.28h.39l6.78,7.84h.02v-7.39c0-.16,.12-.3,.3-.3h1c.16,0,.3,.14,.3,.3v10.52c0,.16-.14,.28-.3,.28h-.41l-6.78-8.06h-.02v7.61c0,.16-.12,.3-.3,.3h-.98c-.16,0-.3-.14-.3-.3v-10.52Z" fill="#bcbec0"/>
      <path d="M135.24,107.27l4.8-10.52c.05-.09,.19-.17,.27-.17h.16c.08,0,.22,.08,.27,.17l4.77,10.52c.09,.2-.03,.41-.27,.41h-.98c-.19,0-.3-.09-.36-.23l-.97-2.14h-5.11c-.31,.72-.64,1.42-.95,2.14-.05,.11-.17,.23-.36,.23h-.98c-.23,0-.36-.2-.27-.41Zm7.08-3.31l-1.92-4.28h-.08l-1.91,4.28h3.91Z" fill="#bcbec0"/>
      <path d="M148.14,107.1l5.16-8.8v-.06h-4.41c-.16,0-.3-.14-.3-.3v-.91c0-.16,.14-.3,.3-.3h6.42c.16,0,.3,.14,.3,.3v.2l-5.17,8.94v.02h4.56c.17,0,.3,.14,.3,.3v.89c0,.16-.12,.3-.3,.3h-6.56c-.16,0-.3-.14-.3-.3v-.28Z" fill="#bcbec0"/>
      <path d="M158.3,107.27l4.8-10.52c.05-.09,.19-.17,.27-.17h.16c.08,0,.22,.08,.27,.17l4.77,10.52c.09,.2-.03,.41-.27,.41h-.98c-.19,0-.3-.09-.36-.23l-.97-2.14h-5.11c-.31,.72-.64,1.42-.95,2.14-.05,.11-.17,.23-.36,.23h-.98c-.23,0-.36-.2-.27-.41Zm7.08-3.31l-1.92-4.28h-.08l-1.91,4.28h3.91Z" fill="#bcbec0"/>
      <path d="M172.3,97.03c0-.16,.12-.3,.3-.3h4.25c1.88,0,3.41,1.48,3.41,3.34,0,1.44-.95,2.62-2.31,3.17l2.14,3.97c.11,.2,0,.45-.27,.45h-1.22c-.12,0-.22-.08-.25-.14l-2.08-4.14h-2.36v3.98c0,.16-.14,.3-.3,.3h-1.02c-.17,0-.3-.14-.3-.3v-10.34Zm4.42,5.02c1.02,0,1.91-.86,1.91-1.94,0-1.02-.89-1.86-1.91-1.86h-2.78v3.8h2.78Z" fill="#bcbec0"/>
      <path d="M184.87,97.03c0-.16,.12-.3,.3-.3h6.25c.17,0,.3,.14,.3,.3v.88c0,.16-.12,.3-.3,.3h-4.94v3.19h4.17c.16,0,.3,.14,.3,.3v.88c0,.17-.14,.3-.3,.3h-4.17v3.36h4.94c.17,0,.3,.14,.3,.3v.86c0,.16-.12,.3-.3,.3h-6.25c-.17,0-.3-.14-.3-.3v-10.34Z" fill="#bcbec0"/>
      <path d="M196.26,96.86c0-.16,.14-.28,.3-.28h.39l6.78,7.84h.02v-7.39c0-.16,.12-.3,.3-.3h1c.16,0,.3,.14,.3,.3v10.52c0,.16-.14,.28-.3,.28h-.41l-6.78-8.06h-.02v7.61c0,.16-.12,.3-.3,.3h-.98c-.16,0-.3-.14-.3-.3v-10.52Z" fill="#bcbec0"/>
      <path d="M215.36,96.58c3.12,0,5.62,2.52,5.62,5.64s-2.5,5.61-5.62,5.61-5.61-2.48-5.61-5.61,2.48-5.64,5.61-5.64Zm0,9.69c2.23,0,4.06-1.81,4.06-4.05s-1.83-4.08-4.06-4.08-4.05,1.86-4.05,4.08,1.83,4.05,4.05,4.05Z" fill="#bcbec0"/>
    </g>
  </g>
</svg>